<svg width="120" height="120" viewBox="0 0 120 120" fill="none" xmlns="http://www.w3.org/2000/svg">
<g clip-path="url(#clip0_876_3809)">
<rect width="120" height="120" rx="60" fill="#0D0C22"/>
<rect width="118" height="55" transform="translate(2 74)" fill="white"/>
<path d="M60.9873 99.0468C62.7806 99.0468 64.2343 97.5931 64.2343 95.7998C64.2343 94.0065 62.7806 92.5527 60.9873 92.5527C59.194 92.5527 57.7402 94.0065 57.7402 95.7998C57.7402 97.5931 59.194 99.0468 60.9873 99.0468Z" fill="#0D0C22"/>
<path d="M69.9171 89.3056H66.9237C66.7715 89.3056 66.5828 89.2072 66.4357 89.052L65.1196 86.9749C65.0988 86.9419 65.0755 86.9105 65.0501 86.881C64.5955 86.3508 63.9811 86.0586 63.3215 86.0586H58.6539C57.9943 86.0586 57.3799 86.3508 56.9254 86.881C56.8999 86.9105 56.8767 86.9419 56.8559 86.9749L55.5398 89.055C55.4271 89.1778 55.2689 89.3087 55.1024 89.3087V88.9028C55.1024 88.6875 55.0169 88.481 54.8647 88.3288C54.7124 88.1766 54.506 88.091 54.2907 88.091H53.073C52.8577 88.091 52.6513 88.1766 52.499 88.3288C52.3468 88.481 52.2613 88.6875 52.2613 88.9028V89.3087H52.0583C51.4127 89.3094 50.7936 89.5661 50.3371 90.0227C49.8805 90.4793 49.6237 91.0983 49.623 91.744V101.482C49.6237 102.128 49.8805 102.747 50.3371 103.203C50.7936 103.66 51.4127 103.917 52.0583 103.917H69.9171C70.5628 103.917 71.1818 103.66 71.6384 103.203C72.0949 102.747 72.3517 102.128 72.3524 101.482V91.7409C72.3517 91.0953 72.0949 90.4762 71.6384 90.0197C71.1818 89.5631 70.5628 89.3063 69.9171 89.3056ZM60.9877 100.67C60.0244 100.67 59.0827 100.385 58.2818 99.8495C57.4808 99.3143 56.8565 98.5536 56.4879 97.6636C56.1193 96.7737 56.0228 95.7943 56.2107 94.8495C56.3987 93.9047 56.8625 93.0369 57.5437 92.3557C58.2249 91.6746 59.0927 91.2107 60.0375 91.0228C60.9823 90.8348 61.9616 90.9313 62.8516 91.2999C63.7416 91.6686 64.5023 92.2928 65.0375 93.0938C65.5726 93.8948 65.8583 94.8364 65.8583 95.7997C65.8568 97.091 65.3432 98.329 64.4301 99.2421C63.517 100.155 62.279 100.669 60.9877 100.67Z" fill="#0D0C22"/>
</g>
<defs>
<clipPath id="clip0_876_3809">
<rect width="120" height="120" rx="60" fill="white"/>
</clipPath>
</defs>
</svg>
